HIERARCHY
ROOT Pelvis
{
	OFFSET 0.000000 0.000000 0.000000
	CHANNELS 6 Xposition Yposition Zposition Xrotation Yrotation Zrotation
	JOINT LeftUpLeg_virtual
	{
		OFFSET 0.000000 0.000000 0.000000
		CHANNELS 3 Xrotation Yrotation Zrotation
		JOINT LeftUpLeg
		{
			OFFSET 18.735201 -5.666702 -4.541200
			CHANNELS 3 Xrotation Yrotation Zrotation
			JOINT LeftLeg
			{
				OFFSET -0.021200 -31.938179 0.493100
				CHANNELS 3 Xrotation Yrotation Zrotation
				JOINT LeftFoot
				{
					OFFSET 0.021200 -31.938179 -4.336299
					CHANNELS 3 Xrotation Yrotation Zrotation
					JOINT LeftToeBase
					{
						OFFSET 0.943001 -26.722000 15.023500
						CHANNELS 3 Xrotation Yrotation Zrotation
						End Site
						{
							OFFSET 0 0 0
						}
					}
				}
			}
		}
	}
	JOINT RightUpLeg_virtual
	{
		OFFSET 0.000000 0.000000 0.000000
		CHANNELS 3 Xrotation Yrotation Zrotation
		JOINT RightUpLeg
		{
			OFFSET -18.735201 -5.666702 -4.541200
			CHANNELS 3 Xrotation Yrotation Zrotation
			JOINT RightLeg
			{
				OFFSET 0.018946 -31.938133 0.493100
				CHANNELS 3 Xrotation Yrotation Zrotation
				JOINT RightFoot
				{
					OFFSET -0.018946 -31.938126 -4.336299
					CHANNELS 3 Xrotation Yrotation Zrotation
					JOINT RightToeBase
					{
						OFFSET -0.943001 -26.722004 15.023500
						CHANNELS 3 Xrotation Yrotation Zrotation
						End Site
						{
							OFFSET 0 0 0
						}
					}
				}
			}
		}
	}
	JOINT Hips_virtual
	{
		OFFSET 0.000000 0.000000 0.000000
		CHANNELS 3 Xrotation Yrotation Zrotation
		JOINT Hips
		{
			OFFSET -0.000000 -0.000000 -0.000000
			CHANNELS 3 Xrotation Yrotation Zrotation
			JOINT Spine
			{
				OFFSET 0.000000 10.199997 -0.299500
				CHANNELS 3 Xrotation Yrotation Zrotation
				JOINT Spine1
				{
					OFFSET 0.000000 11.900002 -1.516600
					CHANNELS 3 Xrotation Yrotation Zrotation
					JOINT Spine2
					{
						OFFSET 0.000000 13.600006 -2.842500
						CHANNELS 3 Xrotation Yrotation Zrotation
						JOINT Neck_virtual
						{
							OFFSET 0.000000 0.000000 0.000000
							CHANNELS 3 Xrotation Yrotation Zrotation
							JOINT Neck
							{
								OFFSET 0.000000 9.624100 -2.890100
								CHANNELS 3 Xrotation Yrotation Zrotation
								JOINT Head
								{
									OFFSET 0.000000 14.068802 -1.351900
									CHANNELS 3 Xrotation Yrotation Zrotation
									End Site
									{
										OFFSET 0 0 0
									}
								}
							}
						}
						JOINT LeftShoulder_virtual
						{
							OFFSET 0.000000 0.000000 0.000000
							CHANNELS 3 Xrotation Yrotation Zrotation
							JOINT LeftShoulder
							{
								OFFSET 15.263000 10.923401 -0.547700
								CHANNELS 3 Xrotation Yrotation Zrotation
								JOINT LeftArm
								{
									OFFSET 25.438599 -2.830597 -13.032500
									CHANNELS 3 Xrotation Yrotation Zrotation
									JOINT LeftForeArm
									{
										OFFSET 29.960503 0.000000 0.000000
										CHANNELS 3 Xrotation Yrotation Zrotation
										JOINT LeftHand
										{
											OFFSET 27.849251 0.000000 0.000000
											CHANNELS 3 Xrotation Yrotation Zrotation
											End Site
											{
												OFFSET 0 0 0
											}
										}
									}
								}
							}
						}
						JOINT RightShoulder_virtual
						{
							OFFSET 0.000000 0.000000 0.000000
							CHANNELS 3 Xrotation Yrotation Zrotation
							JOINT RightShoulder
							{
								OFFSET -15.263000 10.923401 -0.547700
								CHANNELS 3 Xrotation Yrotation Zrotation
								JOINT RightArm
								{
									OFFSET -25.438599 -2.830597 -13.032500
									CHANNELS 3 Xrotation Yrotation Zrotation
									JOINT RightForeArm
									{
										OFFSET -29.960503 0.000000 0.000000
										CHANNELS 3 Xrotation Yrotation Zrotation
										JOINT RightHand
										{
											OFFSET -27.849251 0.000000 0.000000
											CHANNELS 3 Xrotation Yrotation Zrotation
											End Site
											{
												OFFSET 0 0 0
											}
										}
									}
								}
							}
						}
					}
				}
			}
		}
	}
}
MOTION
Frames: 12
Frame Time: 0.03333333
-0.177507 90.633682 4.479385 0.000000 0.000000 0.000000 -1.282558 0.468048 0.034970 -18.066178 -1.200283 9.297351 26.377258 0.158462 -0.979318 -2.767344 10.967909 -9.980086 0.000000 0.000000 0.000000 -1.613986 1.946448 -0.069177 -9.127011 -8.494097 -12.237736 22.153150 0.204558 0.967517 -16.330467 -13.442637 13.259539 0.000000 0.000000 0.000000 -1.801694 0.959877 0.404006 0.539554 -0.603864 -1.232060 3.914072 -0.938171 0.652065 2.266140 0.068658 -0.080793 0.000000 0.000000 0.000000 2.408368 0.164055 -0.160451 -1.022900 -0.056514 -0.053348 0.000000 0.000000 0.000000 2.697192 0.253898 -0.239108 0.821798 9.000622 -11.718208 11.892499 -10.814801 -53.457606 0.083345 -35.454252 0.387551 0.000000 0.000000 0.000000 2.663163 0.259245 -0.257001 1.441020 -7.945159 11.943896 6.487675 17.561543 59.121899 0.813982 25.345720 -0.725813 0.000000 0.000000 0.000000 
-0.321069 90.675812 4.045975 0.000000 0.000000 0.000000 -1.344797 0.346556 0.122970 -18.121583 -1.031212 8.645967 26.868929 0.559299 -1.116551 -2.814090 11.654134 -9.475906 0.000000 0.000000 0.000000 -1.336544 1.920353 -0.085885 -10.401530 -8.391078 -12.125643 22.765671 0.027816 0.843189 -14.174160 -13.108503 13.286409 0.000000 0.000000 0.000000 -1.800303 0.757608 0.492603 0.481876 -0.529405 -1.032194 3.795502 -1.029747 0.714347 2.046430 -0.011395 -0.091051 0.000000 0.000000 0.000000 2.213203 0.089752 -0.180684 -1.031741 -0.050777 -0.013884 0.000000 0.000000 0.000000 2.607223 0.180440 -0.278044 0.937788 8.843944 -11.725235 11.582796 -11.225512 -53.653561 0.107708 -35.419387 0.307385 0.000000 0.000000 0.000000 2.491000 0.205412 -0.262718 1.505204 -7.861868 11.969161 6.418479 17.670538 58.941220 0.744090 25.774655 -0.600532 0.000000 0.000000 0.000000 
-0.562992 90.839592 3.720329 0.000000 0.000000 0.000000 -1.227382 -0.400226 0.585386 -17.962313 -0.761891 7.532870 27.652040 0.793244 -1.158213 -4.593634 11.565406 -8.446430 0.000000 0.000000 0.000000 -0.856303 1.234950 0.298215 -12.071027 -8.121543 -11.677109 22.997915 -0.225160 0.409262 -10.620311 -12.408405 12.201427 0.000000 0.000000 0.000000 -1.675384 0.223564 0.873353 0.298659 -0.176893 -0.893121 3.799620 -1.272402 0.674646 1.664985 -0.158894 -0.188497 0.000000 0.000000 0.000000 1.792915 -0.065588 -0.286556 -1.010345 -0.012842 0.018918 0.000000 0.000000 0.000000 2.320307 0.021208 -0.399342 0.980274 8.458168 -11.909511 11.225739 -11.776719 -53.898160 0.070250 -34.986633 0.234131 0.000000 0.000000 0.000000 2.138010 0.064636 -0.341404 1.571959 -7.671739 12.021913 6.215993 17.983821 58.607524 0.688378 26.553335 -0.442198 0.000000 0.000000 0.000000 
-0.847531 91.028381 3.498707 0.000000 0.000000 0.000000 -0.834172 -1.437324 1.336575 -17.090182 -0.341456 6.192892 27.786016 0.758104 -1.098645 -7.101798 10.438231 -7.544395 0.000000 0.000000 0.000000 -0.325953 0.192289 0.977135 -14.163884 -7.838583 -11.131289 23.746582 -0.355622 -0.031947 -7.587934 -11.477652 9.781683 0.000000 0.000000 0.000000 -1.450421 -0.581822 1.454778 0.110793 0.078545 -0.990276 3.975778 -1.622003 0.476903 1.208709 -0.353390 -0.339553 0.000000 0.000000 0.000000 1.263008 -0.263455 -0.434922 -0.939978 0.045178 0.036463 0.000000 0.000000 0.000000 1.878125 -0.181231 -0.558880 0.944143 7.944301 -12.163058 11.007669 -12.371809 -54.047301 0.045210 -34.523147 0.199989 0.000000 0.000000 0.000000 1.680124 -0.132116 -0.460497 1.634202 -7.399732 12.114777 5.939685 18.518412 58.150475 0.633263 27.470900 -0.265383 0.000000 0.000000 0.000000 
-1.108434 91.195374 3.296509 0.000000 0.000000 0.000000 -0.335430 -2.400823 2.130977 -15.656474 0.751946 5.005000 27.036049 0.922224 -1.158455 -8.729362 8.822773 -6.657346 0.000000 0.000000 0.000000 -0.031510 -0.820196 1.783147 -16.752663 -7.423278 -10.778344 25.919542 0.085576 -0.301393 -5.751985 -9.836565 7.006532 0.000000 0.000000 0.000000 -1.154384 -1.600358 2.082688 -0.033905 0.119939 -1.019539 4.335425 -2.053110 0.161387 0.773026 -0.558070 -0.492669 0.000000 0.000000 0.000000 0.740849 -0.458375 -0.565476 -0.805716 0.109832 0.032239 0.000000 0.000000 0.000000 1.380400 -0.386250 -0.707218 0.854603 7.359562 -12.436145 11.184137 -13.041854 -53.986785 0.072484 -34.459284 0.195918 0.000000 0.000000 0.000000 1.213989 -0.342781 -0.572635 1.679527 -7.034014 12.212697 5.724502 19.142278 57.576466 0.563399 28.416848 -0.085203 0.000000 0.000000 0.000000 
-1.289529 91.210518 3.055637 0.000000 0.000000 0.000000 0.067061 -3.041889 2.701330 -14.137101 2.544893 3.918174 25.964344 1.624368 -1.256318 -9.480579 7.371219 -5.302534 0.000000 0.000000 0.000000 0.073446 -1.654460 2.491532 -19.710977 -6.947198 -10.679172 29.479718 1.447271 -0.203672 -4.620994 -7.051741 5.046266 0.000000 0.000000 0.000000 -0.759586 -2.709233 2.565555 -0.191927 0.024806 -0.998734 4.832974 -2.516926 -0.176703 0.439146 -0.736116 -0.587618 0.000000 0.000000 0.000000 0.360556 -0.611868 -0.616432 -0.597026 0.173708 0.010851 0.000000 0.000000 0.000000 0.951176 -0.552867 -0.795652 0.760449 6.785214 -12.592685 11.962702 -13.854173 -53.711470 0.187326 -34.952117 0.205717 0.000000 0.000000 0.000000 0.837677 -0.517450 -0.634599 1.692506 -6.554902 12.319157 5.749855 19.655941 56.928978 0.487734 29.417474 0.084363 0.000000 0.000000 0.000000 
-1.334352 91.165787 2.752235 0.000000 0.000000 0.000000 0.360320 -3.615149 2.869187 -12.837531 4.611271 2.723728 24.891603 2.617184 -1.152854 -10.041991 6.161895 -3.826317 0.000000 0.000000 0.000000 0.146497 -2.399603 2.834393 -22.903154 -6.751936 -10.591858 33.901456 3.559006 0.333421 -3.896801 -3.303248 4.120006 0.000000 0.000000 0.000000 -0.300708 -3.832277 2.712751 -0.344573 -0.165820 -0.907189 5.334836 -2.954885 -0.414517 0.255174 -0.850523 -0.584726 0.000000 0.000000 0.000000 0.148586 -0.704975 -0.554155 -0.326351 0.225187 -0.021263 0.000000 0.000000 0.000000 0.653707 -0.651042 -0.795385 0.703710 6.271358 -12.545367 13.205493 -14.823773 -53.322177 0.369132 -35.789874 0.201033 0.000000 0.000000 0.000000 0.574616 -0.624734 -0.610468 1.678855 -5.949033 12.477011 6.148240 19.831680 56.274676 0.397804 30.678942 0.237076 0.000000 0.000000 0.000000 
-1.241271 91.219582 2.445866 0.000000 0.000000 0.000000 0.559122 -4.462620 2.524985 -11.838342 6.548031 1.562723 23.856628 3.608102 -0.749295 -11.429771 5.112905 -2.688752 0.000000 0.000000 0.000000 0.090751 -3.378331 2.673085 -25.515562 -7.095377 -10.036259 37.624876 5.867449 1.123278 -3.561430 0.712155 3.692049 0.000000 0.000000 0.000000 0.178767 -5.059131 2.479226 -0.459569 -0.356562 -0.768085 5.768306 -3.295771 -0.492203 0.218938 -0.875035 -0.496443 0.000000 0.000000 0.000000 0.082906 -0.737477 -0.417083 -0.019178 0.264065 -0.054763 0.000000 0.000000 0.000000 0.486415 -0.681489 -0.713858 0.707382 5.810649 -12.252124 14.598829 -15.915649 -52.954631 0.552878 -36.537083 0.167866 0.000000 0.000000 0.000000 0.441421 -0.659947 -0.506557 1.625728 -5.248496 12.713101 6.921818 19.366124 55.817621 0.318304 32.334607 0.360377 0.000000 0.000000 0.000000 
-1.063309 91.450165 2.157196 0.000000 0.000000 0.000000 0.862228 -5.689957 1.844690 -11.365148 7.747911 0.627283 23.187951 4.320894 0.065859 -14.470649 3.976748 -2.169783 0.000000 0.000000 0.000000 0.216672 -4.630931 2.013121 -26.507254 -7.834721 -8.510077 39.085054 7.814398 1.993017 -4.242420 3.967299 2.985941 0.000000 0.000000 0.000000 0.703620 -6.237863 1.941565 -0.354743 -0.489221 -0.740153 6.077751 -3.476656 -0.431315 0.286775 -0.829282 -0.377023 0.000000 0.000000 0.000000 0.111109 -0.719921 -0.278458 0.287978 0.286269 -0.085752 0.000000 0.000000 0.000000 0.432611 -0.664520 -0.593614 0.770943 5.380897 -11.739996 15.787588 -17.044763 -52.714936 0.711097 -36.914440 0.123404 0.000000 0.000000 0.000000 0.439898 -0.638616 -0.372345 1.552889 -4.538346 13.059345 7.963211 18.199119 55.707702 0.261948 34.435457 0.433923 0.000000 0.000000 0.000000 
-0.864934 91.807846 1.859192 0.000000 0.000000 0.000000 1.312962 -7.140594 1.045167 -12.057090 8.232302 0.361988 23.699138 4.765977 1.083531 -17.658293 2.818491 -1.904992 0.000000 0.000000 0.000000 0.485613 -5.963325 1.036079 -25.614540 -8.604439 -6.177121 38.096411 9.075849 2.776190 -6.289111 5.942341 1.535286 0.000000 0.000000 0.000000 1.161129 -7.120000 1.247245 -0.206776 -0.503699 -0.639422 6.234473 -3.484352 -0.306631 0.385926 -0.745984 -0.286944 0.000000 0.000000 0.000000 0.127446 -0.675733 -0.201960 0.563279 0.294291 -0.114509 0.000000 0.000000 0.000000 0.455842 -0.625116 -0.485372 0.862920 4.965496 -11.161612 16.540179 -18.126212 -52.607370 0.832785 -36.951822 0.101851 0.000000 0.000000 0.000000 0.522343 -0.587804 -0.266856 1.495195 -3.824541 13.514261 9.232058 16.524671 55.926969 0.235099 36.878541 0.450679 0.000000 0.000000 0.000000 
-0.706638 91.989685 1.659035 0.000000 0.000000 0.000000 1.764315 -8.285029 0.324064 -14.539270 8.488522 1.136007 26.236345 5.448477 1.882237 -18.203796 2.151183 -0.961900 0.000000 0.000000 0.000000 0.808607 -7.190877 0.172128 -23.287887 -8.914759 -3.672451 35.520344 9.741706 3.313340 -9.113279 6.728851 -0.548634 0.000000 0.000000 0.000000 1.547481 -7.753027 0.659947 -0.223512 -0.303619 -0.670337 6.357839 -3.298355 -0.222890 0.455702 -0.658562 -0.263808 0.000000 0.000000 0.000000 0.101298 -0.614028 -0.219840 0.785508 0.293174 -0.134239 0.000000 0.000000 0.000000 0.543232 -0.572967 -0.437110 0.961923 4.558768 -10.649846 16.797191 -18.966254 -52.608555 0.951018 -36.823660 0.152838 0.000000 0.000000 0.000000 0.664023 -0.518046 -0.240573 1.454924 -3.102169 14.029191 10.637096 14.796599 56.299972 0.242106 39.332648 0.415422 0.000000 0.000000 0.000000 
-0.642923 91.780724 1.401081 0.000000 0.000000 0.000000 2.034688 -8.997826 -0.064958 -19.148184 8.783401 2.766824 31.094645 6.399949 2.220434 -14.558535 2.091821 0.788335 0.000000 0.000000 0.000000 1.303599 -7.920065 -0.269697 -20.917427 -8.845368 -1.927882 33.348576 10.063817 3.713847 -12.143947 6.696061 -2.750170 0.000000 0.000000 0.000000 1.767166 -8.069040 0.363737 -0.380259 -0.065583 -0.808407 6.637666 -2.970154 -0.257277 0.514844 -0.583024 -0.323945 0.000000 0.000000 0.000000 0.052320 -0.536783 -0.325513 0.942921 0.280001 -0.137521 0.000000 0.000000 0.000000 0.688828 -0.512608 -0.474906 1.059719 4.172832 -10.319644 16.489600 -19.357263 -52.727428 1.097267 -36.620978 0.323610 0.000000 0.000000 0.000000 0.851399 -0.431356 -0.309348 1.434730 -2.347385 14.513964 12.131612 13.522812 56.475334 0.272293 41.514136 0.344134 0.000000 0.000000 0.000000 
